<?xml version="1.0" encoding="UTF-8"?>
<svg id="Layer_3" data-name="Layer 3" xmlns="http://www.w3.org/2000/svg" viewBox="0 0 2108 2112">
  <defs>
    <style>
      .cls-1 {
        fill: #fff;
      }

      .cls-2 {
        isolation: isolate;
      }
    </style>
  </defs>
  <g class="cls-2">
    <path class="cls-1" d="m1182.85,865.73v245.07l-43.76-33.61-157.54-121.48v155.09h-43.76v-244.37l43.76,33.61,157.54,121.48v-156.14l43.76.35Z"/>
    <path class="cls-1" d="m1419.87,1067.03v43.76h-124.28c-12.25,0-23.81-2.8-34.31-8.05-15.4-7.7-28.01-20.31-35.36-35.71-5.25-10.5-8.05-22.06-8.05-34.31v-167h43.76v171.2c2.1,15.41,14.35,27.66,29.76,29.76l128.49.35Z"/>
    <path class="cls-1" d="m1608.92,865.03l-94.88,122.88-5.25,6.65v115.53h-43.76v-114.83l-5.95-7.35-94.88-122.88h55.32l67.22,87.17,67.22-87.17h54.97Z"/>
    <path class="cls-1" d="m1837,865.73v43.76h-79.48v201.31h-43.76v-201.31h-83.48v-43.76h206.72Z"/>
    <path class="cls-1" d="m1005.52,1236.55v22.76h157.54v43.76h-157.54v46.21c0,12.25,10.15,22.41,22.41,22.41h178.9v43.76h-178.9c-36.41,0-65.82-29.76-65.82-66.17v-112.73c0-36.41,29.41-66.17,65.82-66.17h178.9v43.76h-178.9c-12.25,0-22.41,10.15-22.41,22.41Z"/>
    <path class="cls-1" d="m1364.02,1170.73c67.57,0,122.53,54.62,122.53,122.18,0,30.11-10.85,57.77-29.06,79.12-2.1,2.45-4.55,4.9-7,7.35-22.06,22.41-52.51,36.06-86.12,36.06h-122.53v-245.07l122.18.35Zm-78.77,201.31h78.77c43.41,0,78.77-35.36,78.77-78.77s-35.36-78.77-78.77-78.77h-78.77v157.54Z"/>
    <path class="cls-1" d="m1521.91,1415.45v-245.07h43.76v245.07h-43.76Z"/>
    <path class="cls-1" d="m1837,1415.45h-49.01l-22.41-43.76-53.57-105.03-53.57,105.03-22.41,43.76h-49.01l22.41-43.76,102.58-201.31,102.58,201.31,22.41,43.76Z"/>
  </g>
  <g>
    <g>
      <path class="cls-1" d="m937.21,1423.1h0c-54.47,0-103.98-31.77-126.57-81.28l-68.72-150.43,55-75.9,140.29,307.61h0Z"/>
      <polygon class="cls-1" points="753.42 1019.95 698.32 1095.85 602.36 885.78 478.85 1157.5 469.14 1179.03 402.74 1131.21 602.36 688.9 753.42 1019.95"/>
    </g>
    <path class="cls-1" d="m921.8,985.85l-30.61-22.7-293.36,404.62-161.41-116.01-40.96,91.21c-22.27,48.77-70.94,80.02-124.46,80.02l126.25-279.74,185.9,133.54,255.78-352.69-28.4-21.11,108.41-29.66,2.85,112.53h0Z"/>
  </g>
</svg>